<svg width="512" height="512" viewBox="0 0 512 512" fill="none" xmlns="http://www.w3.org/2000/svg">
<path fill-rule="evenodd" clip-rule="evenodd" d="M257 490C386.235 490 491 385.235 491 256C491 126.765 386.235 22 257 22C127.765 22 23 126.765 23 256C23 385.235 127.765 490 257 490ZM257 426C350.888 426 427 349.888 427 256C427 162.112 350.888 86 257 86C163.112 86 87 162.112 87 256C87 349.888 163.112 426 257 426Z" fill="#3B82F6"/>
<path fill-rule="evenodd" clip-rule="evenodd" d="M257 353C310.572 353 354 309.572 354 256C354 202.428 310.572 159 257 159C203.428 159 160 202.428 160 256C160 309.572 203.428 353 257 353ZM257 302C282.405 302 303 281.405 303 256C303 230.595 282.405 210 257 210C231.595 210 211 230.595 211 256C211 281.405 231.595 302 257 302Z" fill="#FBBF24"/>
<circle cx="287" cy="222" r="12" fill="#FAFAFA"/>
</svg>
