<svg width="512" height="512" viewBox="0 0 512 512" fill="none" xmlns="http://www.w3.org/2000/svg">
<path fill-rule="evenodd" clip-rule="evenodd" d="M257 490C386.235 490 491 385.235 491 256C491 126.765 386.235 22 257 22C127.765 22 23 126.765 23 256C23 385.235 127.765 490 257 490ZM257 426C350.888 426 427 349.888 427 256C427 162.112 350.888 86 257 86C163.112 86 87 162.112 87 256C87 349.888 163.112 426 257 426Z" fill="black"/>
<path fill-rule="evenodd" clip-rule="evenodd" d="M354 256C354 309.572 310.572 353 257 353C203.428 353 160 309.572 160 256C160 202.428 203.428 159 257 159C310.572 159 354 202.428 354 256ZM303 256C303 281.405 282.405 302 257 302C231.595 302 211 281.405 211 256C211 230.595 231.595 210 257 210C264.335 210 271.269 211.717 277.422 214.77C279.612 211.872 283.087 210 287 210C293.627 210 299 215.373 299 222C299 225.376 297.606 228.426 295.362 230.607C300.189 237.884 303 246.614 303 256Z" fill="black"/>
</svg>
